<svg id="visual" viewBox="0 0 900 600" width="900" height="600" xmlns="http://www.w3.org/2000/svg" xmlns:xlink="http://www.w3.org/1999/xlink" version="1.1"><rect x="0" y="0" width="900" height="600" fill="#ffffff"></rect><path d="M0 567L21.5 559.5C43 552 86 537 128.8 529.3C171.7 521.7 214.3 521.3 257.2 528.8C300 536.3 343 551.7 385.8 557.5C428.7 563.3 471.3 559.7 514.2 552.2C557 544.7 600 533.3 642.8 530.7C685.7 528 728.3 534 771.2 539.2C814 544.3 857 548.7 878.5 550.8L900 553L900 601L878.5 601C857 601 814 601 771.2 601C728.3 601 685.7 601 642.8 601C600 601 557 601 514.2 601C471.3 601 428.7 601 385.8 601C343 601 300 601 257.2 601C214.3 601 171.7 601 128.8 601C86 601 43 601 21.5 601L0 601Z" fill="#84d9bc" stroke-linecap="round" stroke-linejoin="miter"></path></svg>